<svg width="45" height="45" viewBox="0 0 45 45" fill="none" xmlns="http://www.w3.org/2000/svg">
<path d="M11.9296 12.5879H14.2578C14.6167 12.5879 14.9076 12.2969 14.9076 11.9381C14.9076 11.5792 14.6167 11.2883 14.2578 11.2883H11.9296C11.5707 11.2883 11.2797 11.5792 11.2797 11.9381C11.2797 12.2969 11.5707 12.5879 11.9296 12.5879V12.5879Z" fill="#616161"/>
<path d="M30.2495 11.9381C30.2495 12.2969 30.5404 12.5879 30.8994 12.5879H33.2301C33.589 12.5879 33.8799 12.2969 33.8799 11.9381C33.8799 11.5792 33.589 11.2883 33.2301 11.2883H30.8994C30.5404 11.2883 30.2495 11.5792 30.2495 11.9381Z" fill="#616161"/>
<path d="M28.4631 6.70571C28.6295 6.70571 28.796 6.64212 28.923 6.51501L30.5685 4.86698C30.8221 4.61303 30.8217 4.20157 30.5678 3.94805C30.3138 3.69445 29.9024 3.69479 29.6488 3.94874L28.0032 5.59677C27.7496 5.85072 27.75 6.26219 28.0039 6.51571C28.1308 6.64238 28.2969 6.70571 28.4631 6.70571V6.70571Z" fill="#616161"/>
<path d="M16.2371 6.51536C16.364 6.64229 16.5303 6.70571 16.6966 6.70571C16.8628 6.70571 17.0292 6.64229 17.156 6.51536C17.4098 6.26158 17.4098 5.8502 17.156 5.59643L15.5081 3.9484C15.2543 3.69462 14.8429 3.69462 14.5892 3.9484C14.3354 4.20217 14.3354 4.61355 14.5892 4.86733L16.2371 6.51536Z" fill="#616161"/>
<path d="M22.5786 4.2669C22.9375 4.2669 23.2284 3.97596 23.2284 3.61708V1.28874C23.2284 0.929864 22.9375 0.638918 22.5786 0.638918C22.2197 0.638918 21.9287 0.929864 21.9287 1.28874V3.61708C21.9287 3.97596 22.2197 4.2669 22.5786 4.2669V4.2669Z" fill="#616161"/>
<path d="M44.1205 32.1182L43.8528 30.4285C43.8524 30.4263 43.8518 30.4242 43.8514 30.422C43.851 30.4198 43.851 30.4174 43.8505 30.4152L42.0371 20.3268C42.035 20.3135 42.0328 20.3003 42.03 20.2874L41.3381 16.438C41.3363 16.4287 41.3345 16.4193 41.3324 16.41C41.1118 15.4324 40.27 14.7403 39.2853 14.7268C39.2824 14.7268 39.2794 14.7268 39.2764 14.7268L28.0485 14.7285C28.4856 13.8695 28.7198 12.9112 28.7198 11.9382C28.7198 8.5518 25.9648 5.79674 22.5785 5.79674C19.1921 5.79674 16.4372 8.5518 16.4372 11.9382C16.4372 12.9115 16.6715 13.87 17.1089 14.7292H11.0945C10.7356 14.7292 10.4447 15.0202 10.4447 15.3791C10.4447 15.7379 10.7356 16.0289 11.0945 16.0289H13.571L13.0529 19.7789H4.53896L5.09521 16.6843C5.17345 16.3607 5.46734 16.0343 5.8853 16.0265L8.09512 16.0289H8.09582C8.45434 16.0289 8.74529 15.7384 8.74563 15.3798C8.74598 15.0209 8.45538 14.7296 8.09651 14.7292L5.88123 14.7268C5.87803 14.7268 5.87491 14.7268 5.8717 14.7268C4.88709 14.7403 4.04528 15.4324 3.82468 16.41C3.8226 16.4193 3.8207 16.4287 3.81896 16.4381L1.30659 30.4151C1.30624 30.4172 1.30616 30.4193 1.30581 30.4213C1.30538 30.4237 1.30468 30.4259 1.30434 30.4284L1.03687 32.117C0.926662 32.8047 1.09328 33.4501 1.50621 33.9344C1.94151 34.4452 2.59843 34.7264 3.35595 34.7264H19.7042L19.7057 37.0494H18.4625C17.2538 37.0494 16.2704 38.0328 16.2704 39.2416V40.2423H15.1003C13.8199 40.2423 12.7781 41.283 12.7781 42.5622V43.9818C12.7781 44.5432 13.236 45 13.7987 45H31.3612C31.9226 45 32.3794 44.5432 32.3794 43.9818V42.5622C32.3794 41.283 31.3376 40.2423 30.057 40.2423H28.887V39.2416C28.887 38.0328 27.9036 37.0494 26.6949 37.0494H25.4512V34.7264H30.3198C30.6788 34.7264 30.9696 34.4355 30.9696 34.0766C30.9696 33.7178 30.6788 33.4268 30.3198 33.4268H3.35586C2.98529 33.4268 2.67953 33.3077 2.49515 33.0913C2.33088 32.8986 2.27032 32.6328 2.32022 32.3216L2.50113 31.18H42.6561L42.8371 32.3227C42.8868 32.6329 42.8263 32.8986 42.662 33.0913C42.4777 33.3077 42.172 33.4268 41.8013 33.4268H33.3185C32.9595 33.4268 32.6687 33.7178 32.6687 34.0766C32.6687 34.4355 32.9595 34.7264 33.3185 34.7264H41.8013C42.5588 34.7264 43.2157 34.4452 43.6511 33.9344C44.0639 33.4501 44.2306 32.8047 44.1205 32.1182V32.1182ZM31.0797 42.5621V43.7003H14.0775V42.5621C14.0775 41.9996 14.5363 41.5418 15.1002 41.5418H16.92H28.237H30.0568C30.6209 41.5418 31.0797 41.9996 31.0797 42.5621ZM27.5873 39.2416V40.2422H17.5699V39.2416C17.5699 38.7494 17.9703 38.349 18.4624 38.349H20.3559H20.3563H26.6948C27.1869 38.349 27.5873 38.7494 27.5873 39.2416V39.2416ZM24.1515 37.0493H21.0054L21.0038 34.7264H24.1516V37.0493H24.1515ZM21.9287 26.1303V29.8803H12.9691L13.4872 26.1303H21.9287ZM13.6668 24.8306L14.1852 21.0782H21.9287V24.8306H13.6668ZM23.2285 26.1303H31.67L32.1881 29.8803H23.2285V26.1303ZM23.2285 24.8306V21.0782H30.972L31.4904 24.8306H23.2285ZM23.2285 16.0287H26.8593C26.863 16.0287 26.8668 16.0281 26.8705 16.0281L30.2741 16.0276L30.7924 19.7787H23.2285V16.0287ZM32.2839 21.0783H40.8518L41.5263 24.8307H32.8024L32.2839 21.0783ZM40.062 16.6841L40.6182 19.7787H32.1044L31.5861 16.0274L39.2716 16.0263C39.6898 16.0339 39.9837 16.3605 40.062 16.6841ZM17.7369 11.9381C17.7369 9.26825 19.9088 7.09621 22.5786 7.09621C25.2482 7.09621 27.4202 9.26825 27.4202 11.9381C27.4202 12.9526 27.1157 13.9111 26.5366 14.7286L22.5786 14.7292H18.6209C18.0415 13.9115 17.7369 12.9528 17.7369 11.9381V11.9381ZM14.883 16.0287H18.2979H21.9288V19.7787H14.3649L14.883 16.0287ZM12.8733 21.0783L12.3548 24.8306H3.63086L4.30538 21.0782H12.8733V21.0783ZM3.39728 26.1303H12.1753L11.6642 29.8296C11.6619 29.8466 11.6608 29.8635 11.6598 29.8803H2.7232L3.39728 26.1303ZM33.4975 29.8803C33.4965 29.8635 33.4954 29.8466 33.4931 29.8296L32.982 26.1303H41.7599L42.434 29.8803H33.4975Z" fill="#616161"/>
</svg>
