<svg width="45" height="45" viewBox="0 0 45 45" fill="none" xmlns="http://www.w3.org/2000/svg">
<path d="M35.4625 6.07717H35.4624C33.0024 6.07958 31.0088 8.07319 31.0064 10.5332V10.5333C31.0064 12.9943 33.0014 14.9893 35.4625 14.9893C37.9235 14.9893 39.9186 12.9943 39.9186 10.5333C39.9186 8.0722 37.9235 6.07717 35.4625 6.07717ZM29.6518 10.5332C29.6519 7.32416 32.2534 4.72267 35.4625 4.72267C38.6715 4.72267 41.2731 7.32418 41.2731 10.5333C41.2731 13.7423 38.6716 16.3438 35.4625 16.3438C32.2549 16.3402 29.6555 13.7409 29.6518 10.5332Z" fill="#616161" stroke="white" stroke-width="0.112168"/>
<path d="M36.1951 1H34.7284V3.2H36.1951V1Z" fill="#616161"/>
<path d="M36.1951 17.8667H34.7284V20.0667H36.1951V17.8667Z" fill="#616161"/>
<path d="M28.1296 9.80005H25.9295V11.2667H28.1296V9.80005Z" fill="#616161"/>
<path d="M44.7021 9.97341H42.502V11.4401H44.7021V9.97341Z" fill="#616161"/>
<path d="M29.2396 3.27396L28.2025 4.31104L29.7581 5.86667L30.7952 4.82958L29.2396 3.27396Z" fill="#616161"/>
<path d="M41.1656 15.199L40.1285 16.2361L41.6841 17.7917L42.7212 16.7546L41.1656 15.199Z" fill="#616161"/>
<path d="M29.7592 15.1983L28.2035 16.7539L29.2406 17.791L30.7962 16.2354L29.7592 15.1983Z" fill="#616161"/>
<path d="M41.6852 3.27375L40.1295 4.82937L41.1666 5.86645L42.7222 4.31083L41.6852 3.27375Z" fill="#616161"/>
<path d="M1 11.9941V17.1333C0.999909 17.2551 1.03016 17.3751 1.088 17.4824M1 11.9941L1.05608 11.9948C1.05608 11.9947 1.05608 11.9946 1.05608 11.9945M1 11.9941H1.05608V11.9945M1 11.9941C1.00092 11.9193 1.01329 11.8451 1.03667 11.7741L1.73029 11.3227M1.05608 11.9945V17.1333V17.1334C1.056 17.2459 1.08393 17.3567 1.13734 17.4557M1.05608 11.9945C1.05696 11.9259 1.06826 11.8579 1.08957 11.7928C1.09633 11.7749 1.10392 11.7575 1.1124 11.7407L1.11291 11.741L1.11548 11.7334C1.12506 11.705 1.13691 11.6773 1.15082 11.6506C1.15292 11.6472 1.15597 11.6434 1.16138 11.6369C1.16192 11.6363 1.16249 11.6356 1.1631 11.6349C1.16809 11.629 1.17529 11.6206 1.18168 11.6111C1.22274 11.5544 1.27208 11.5041 1.32798 11.4616L1.32803 11.4617L1.33031 11.4598C1.34535 11.447 1.36118 11.4351 1.37753 11.4243C1.43268 11.3887 1.49284 11.3617 1.55607 11.344H1.5561H1.55613H1.55617H1.5562H1.55623H1.55627H1.5563H1.55634H1.55637H1.55641H1.55644H1.55647H1.55651H1.55654H1.55658H1.55661H1.55665H1.55668H1.55672H1.55675H1.55678H1.55682H1.55685H1.55689H1.55692H1.55696H1.55699H1.55702H1.55706H1.55709H1.55713H1.55716H1.5572H1.55723H1.55727H1.5573H1.55733H1.55737H1.5574H1.55744H1.55747H1.55751H1.55754H1.55757H1.55761H1.55764H1.55768H1.55771H1.55775H1.55778H1.55782H1.55785H1.55788H1.55792H1.55795H1.55799H1.55802H1.55806H1.55809H1.55812H1.55816H1.55819H1.55823H1.55826H1.5583H1.55833H1.55837H1.5584H1.55843H1.55847H1.5585H1.55854H1.55857H1.55861H1.55864H1.55867H1.55871H1.55874H1.55878H1.55881H1.55885H1.55888H1.55892H1.55895H1.55898H1.55902H1.55905H1.55909H1.55912H1.55916H1.55919H1.55922H1.55926H1.55929H1.55933H1.55936H1.5594H1.55943H1.55947H1.5595H1.55953H1.55957H1.5596H1.55964H1.55967H1.55971H1.55974H1.55977H1.55981H1.55984H1.55988H1.55991H1.55995H1.55998H1.56002H1.56005H1.56008H1.56012H1.56015H1.56019H1.56022H1.56026H1.56029H1.56032H1.56036H1.56039H1.56043H1.56046H1.5605H1.56053H1.56057H1.5606H1.56063H1.56067H1.5607H1.56074H1.56077H1.56081H1.56084H1.56087H1.56091H1.56094H1.56098H1.56101H1.56105H1.56108H1.56112H1.56115H1.56118H1.56122H1.56125H1.56129H1.56132H1.56136H1.56139H1.56142H1.56146H1.56149H1.56153H1.56156H1.5616H1.56163H1.56167H1.5617H1.56173H1.56177H1.5618H1.56184H1.56187H1.56191H1.56194H1.56197H1.56201H1.56204H1.56208H1.56211H1.56215H1.56218H1.56222H1.56225H1.56228H1.56232H1.56235H1.56239H1.56242H1.56246H1.56249H1.56252H1.56256H1.56259H1.56263H1.56266H1.5627H1.56273H1.56277H1.5628H1.56283H1.56287H1.5629H1.56294H1.56297H1.56301H1.56304H1.56307H1.56311H1.56314H1.56318H1.56321H1.56325H1.56328H1.56332H1.56335H1.56338H1.56342H1.56345H1.56349H1.56352H1.56356H1.56359H1.56362H1.56366H1.56369H1.56373H1.56376H1.5638H1.56383H1.56387H1.5639H1.56393H1.56397H1.564H1.56404H1.56407H1.56411H1.56414H1.56417H1.56421H1.56424H1.56428H1.56431H1.56435H1.56438H1.56442H1.56445H1.56448H1.56452H1.56455H1.56459H1.56462H1.56466H1.56469H1.56472H1.56476H1.56479H1.56483H1.56486H1.5649H1.56493H1.56497H1.565H1.56503H1.56507H1.5651H1.56514H1.56517H1.56521H1.56524H1.56527H1.56531H1.56534H1.56538H1.56541H1.56545H1.56548H1.56552H1.56555H1.56558H1.56562H1.56565H1.56569H1.56572H1.56576H1.56579H1.56582H1.56586H1.56589H1.56593H1.56596H1.566H1.56603H1.56607H1.5661H1.56613V11.3456L1.57936 11.3424C1.6288 11.3304 1.67938 11.3239 1.73029 11.3227M1.13734 17.4557L1.088 17.4824M1.13734 17.4557C1.13735 17.4557 1.13736 17.4557 1.13736 17.4558M1.13734 17.4557L1.13736 17.4558M1.088 17.4824L1.13736 17.4558M1.088 17.4824L15.751 44.6157C15.8793 44.8526 16.127 45.0002 16.3963 45H39.863C40.268 45.0001 40.5965 44.6718 40.5965 44.2668C40.5965 44.144 40.5657 44.0232 40.5069 43.9154M1.13736 17.4558L22.263 11.2666C22.5314 11.2665 22.7784 11.4131 22.9069 11.6487L40.5069 43.9154M1.13736 17.4558L15.8003 44.589C15.8003 44.589 15.8003 44.5891 15.8004 44.5891C15.9188 44.8078 16.1476 44.9441 16.3963 44.9439H39.863C40.2371 44.944 40.5404 44.6408 40.5404 44.2667C40.5405 44.1534 40.512 44.0418 40.4577 43.9423L40.5069 43.9154M1.13736 17.4558L1.73029 11.3227M40.5069 43.9154L40.4577 43.9423L22.8576 11.6756C22.739 11.458 22.5109 11.3226 22.263 11.3227H1.73029M34.2274 35.5227H34.3218L34.2766 35.4398L30.6767 28.8398L30.6607 28.8106H30.6274H25.6987H25.6042L25.6494 28.8935L29.2494 35.4935L29.2653 35.5227H29.2986H34.2274ZM16.6273 27.4561H16.7218L16.6766 27.3731L13.0766 20.7731L13.0607 20.7439H13.0274H7.36534H7.27086L7.3161 20.8268L10.916 27.4268L10.932 27.4561H10.9653H16.6273ZM14.6987 20.7439H14.6042L14.6494 20.8268L18.2494 27.4268L18.2653 27.4561H18.2986H23.2273H23.3218L23.2766 27.3731L19.6766 20.7731L19.6607 20.7439H19.6274H14.6987ZM17.4766 28.8398L17.4607 28.8106H17.4274H11.7653H11.6709L11.7161 28.8935L15.316 35.4935L15.332 35.5227H15.3653H21.0273H21.1218L21.0766 35.4398L17.4766 28.8398ZM19.0987 28.8106H19.0042L19.0494 28.8935L22.6494 35.4935L22.6653 35.5227H22.6986H27.6274H27.7218L27.6766 35.4398L24.0767 28.8398L24.0607 28.8106H24.0274H19.0987ZM29.8274 27.4561H29.9218L29.8766 27.3731L26.2767 20.7731L26.2607 20.7439H26.2274H21.2987H21.2042L21.2494 20.8268L24.8494 27.4268L24.8653 27.4561H24.8986H29.8274ZM21.8766 12.7065L21.8607 12.6772H21.8274H16.8987H16.8042L16.8494 12.7602L20.4494 19.3602L20.4653 19.3894H20.4986H25.4274H25.5218L25.4766 19.3065L21.8766 12.7065ZM15.2766 12.7065L15.2607 12.6772H15.2274H10.2987H10.2042L10.2494 12.7602L13.8494 19.3602L13.8653 19.3894H13.8986H18.8273H18.9218L18.8766 19.3065L15.2766 12.7065ZM8.67664 12.7065L8.6607 12.6772H8.62741H2.96533H2.87086L2.9161 12.7602L6.51603 19.3602L6.53198 19.3894H6.56527H12.2273H12.3218L12.2766 19.3065L8.67664 12.7065ZM16.787 43.56L16.8029 43.5894H16.8363H18.094H18.1885L18.1432 43.5065L2.51224 14.8493L2.40692 14.8761V16.9478V16.962L2.41367 16.9745L16.787 43.56ZM19.716 43.5602L19.732 43.5894H19.7653H25.4274H25.5218L25.4766 43.5065L21.8766 36.9065L21.8607 36.8772H21.8274H16.1653H16.0709L16.1161 36.9602L19.716 43.5602ZM27.0494 43.5602L27.0653 43.5894H27.0986H32.0274H32.1218L32.0766 43.5065L28.4767 36.9065L28.4607 36.8772H28.4274H23.4987H23.4042L23.4494 36.9602L27.0494 43.5602ZM33.6494 43.5602L33.6653 43.5894H33.6986H38.6274H38.7218L38.6766 43.5065L35.0767 36.9065L35.0607 36.8772H35.0274H30.0987H30.0042L30.0494 36.9602L33.6494 43.5602Z" fill="#616161" stroke="white" stroke-width="0.112168"/>
</svg>
