<svg width="45" height="45" viewBox="0 0 45 45" fill="none" xmlns="http://www.w3.org/2000/svg">
<g clip-path="url(#clip0_301_68)">
<path d="M37.3348 22.4769C37.3348 30.6695 30.6695 37.3348 22.4769 37.3348C14.2842 37.3348 7.61896 30.6695 7.61896 22.4769C7.61896 14.2842 14.2842 7.61895 22.4769 7.61895C30.7158 7.61895 37.3348 14.2842 37.3348 22.4769Z" stroke="#616161" stroke-width="1.5" stroke-miterlimit="10" stroke-linecap="round" stroke-linejoin="round"/>
<path d="M24.7912 12.803L16.1819 24.0969H20.4866V32.197L28.8181 21.1346H23.958L24.7912 12.803Z" stroke="#616161" stroke-width="1.5" stroke-miterlimit="10" stroke-linecap="round" stroke-linejoin="round"/>
<path d="M22.4769 1V5.11949" stroke="#616161" stroke-width="1.5" stroke-miterlimit="10" stroke-linecap="round" stroke-linejoin="round"/>
<path d="M22.4769 39.8342V44" stroke="#616161" stroke-width="1.5" stroke-miterlimit="10" stroke-linecap="round" stroke-linejoin="round"/>
<path d="M44 22.4769H39.8342" stroke="#616161" stroke-width="1.5" stroke-miterlimit="10" stroke-linecap="round" stroke-linejoin="round"/>
<path d="M5.1195 22.4769H1.00002" stroke="#616161" stroke-width="1.5" stroke-miterlimit="10" stroke-linecap="round" stroke-linejoin="round"/>
<path d="M37.7051 7.29494L34.789 10.211" stroke="#616161" stroke-width="1.5" stroke-miterlimit="10" stroke-linecap="round" stroke-linejoin="round"/>
<path d="M10.211 34.789L7.29494 37.7051" stroke="#616161" stroke-width="1.5" stroke-miterlimit="10" stroke-linecap="round" stroke-linejoin="round"/>
<path d="M37.7051 37.7051L34.789 34.789" stroke="#616161" stroke-width="1.5" stroke-miterlimit="10" stroke-linecap="round" stroke-linejoin="round"/>
<path d="M10.211 10.211L7.29494 7.29494" stroke="#616161" stroke-width="1.5" stroke-miterlimit="10" stroke-linecap="round" stroke-linejoin="round"/>
<path d="M29.605 5.25834L28.2164 8.54467" stroke="#616161" stroke-width="1.5" stroke-miterlimit="10" stroke-linecap="round" stroke-linejoin="round"/>
<path d="M16.7374 36.409L15.3951 39.7417" stroke="#616161" stroke-width="1.5" stroke-miterlimit="10" stroke-linecap="round" stroke-linejoin="round"/>
<path d="M39.7417 29.6049L36.409 28.2164" stroke="#616161" stroke-width="1.5" stroke-miterlimit="10" stroke-linecap="round" stroke-linejoin="round"/>
<path d="M8.54468 16.7374L5.25835 15.395" stroke="#616161" stroke-width="1.5" stroke-miterlimit="10" stroke-linecap="round" stroke-linejoin="round"/>
<path d="M39.6954 15.3025L36.409 16.6911" stroke="#616161" stroke-width="1.5" stroke-miterlimit="10" stroke-linecap="round" stroke-linejoin="round"/>
<path d="M8.59096 28.3089L5.25835 29.6512" stroke="#616161" stroke-width="1.5" stroke-miterlimit="10" stroke-linecap="round" stroke-linejoin="round"/>
<path d="M29.6512 39.6954L28.3089 36.409" stroke="#616161" stroke-width="1.5" stroke-miterlimit="10" stroke-linecap="round" stroke-linejoin="round"/>
<path d="M16.6911 8.59096L15.3025 5.25834" stroke="#616161" stroke-width="1.5" stroke-miterlimit="10" stroke-linecap="round" stroke-linejoin="round"/>
</g>
<defs>
<clipPath id="clip0_301_68">
<rect width="43" height="43" fill="white" transform="translate(1 1)"/>
</clipPath>
</defs>
</svg>
