<svg width="45" height="45" viewBox="0 0 45 45" fill="none" xmlns="http://www.w3.org/2000/svg">
<path d="M14.8931 5.6726C22.3318 2.19822 31.4187 3.80178 37.2094 10.216C44.2918 18.0557 43.6681 30.1269 35.784 37.2094" stroke="#616161" stroke-width="1.4" stroke-miterlimit="10" stroke-linecap="round" stroke-linejoin="round"/>
<path d="M31.2851 40.2383C23.8463 43.8463 14.6258 42.2428 8.79063 35.784C1.75277 27.9443 2.37638 15.873 10.216 8.79064" stroke="#616161" stroke-width="1.4" stroke-miterlimit="10" stroke-linecap="round" stroke-linejoin="round"/>
<path d="M41.2183 37.5657L35.7394 37.2984L36.0067 31.8196" stroke="#616161" stroke-width="1.4" stroke-miterlimit="10" stroke-linecap="round" stroke-linejoin="round"/>
<path d="M9.99332 14.2249L10.3051 8.7461L4.82628 8.43429" stroke="#616161" stroke-width="1.4" stroke-miterlimit="10" stroke-linecap="round" stroke-linejoin="round"/>
<path d="M35.4721 23.0445C35.4276 29.9933 29.8151 35.5612 22.8664 35.5612C15.9176 35.5167 10.3497 29.9042 10.3497 22.9555C10.3942 16.0067 16.0067 10.4388 22.9554 10.4388C29.9042 10.4833 35.4721 16.1403 35.4721 23.0445Z" stroke="#616161" stroke-width="1.4" stroke-miterlimit="10" stroke-linecap="round" stroke-linejoin="round"/>
<path d="M10.5724 21.0846C11.4187 20.6837 12.3096 20.4165 13.245 20.2828C13.5568 20.2383 13.824 20.2383 14.1358 20.3274C14.4031 20.4165 14.6704 20.6837 14.6704 20.951C14.7149 21.3073 14.4031 21.5746 14.1804 21.8419C13.3786 22.7327 13.0223 24.1581 13.735 25.1381C13.9131 25.4053 14.1804 25.6726 14.1804 25.9844C14.1804 26.2071 14.0913 26.3853 13.9577 26.5635C13.4232 27.3653 12.5768 28.4343 12.5768 30.1269" stroke="#616161" stroke-width="1.4" stroke-miterlimit="10" stroke-linecap="round" stroke-linejoin="round"/>
<path d="M23.8908 10.8396C24.069 11.8196 25.1826 12.4877 25.0935 13.4677C25.0044 14.4922 23.7572 14.8931 22.8218 15.2494C21.9309 15.5612 21.0846 16.0067 20.3719 16.5857C19.9265 16.8975 19.5256 17.2539 19.392 17.6993C19.1247 18.5457 19.7483 19.4365 20.2383 20.1938C20.7283 20.951 21.1292 22.02 20.5501 22.6882C19.9265 23.4009 18.7684 23.1336 17.8329 22.8218C16.8975 22.51 15.7839 25.1826 19.971 25.4944C20.5501 25.539 20.9955 26.1626 20.9955 26.7416C21.0401 27.7216 19.6147 28.167 19.3029 29.1024C20.9064 30.6169 24.6481 27.0535 25.7171 28.8352C25.6726 29.8151 25.3608 30.7506 24.8263 31.5523C24.6035 31.9087 24.2917 32.2205 24.2472 32.6659C24.1581 33.2004 24.4699 33.6904 24.8708 34.0468C25.2717 34.3586 25.7617 34.7149 27.2761 34.7149" stroke="#616161" stroke-width="1.4" stroke-miterlimit="10" stroke-linecap="round" stroke-linejoin="round"/>
<path d="M30.6169 13.3786C29.637 14.7149 28.7016 16.0512 27.7216 17.3875C27.4543 17.7884 27.1425 18.3675 27.4989 18.7238C27.6325 18.8575 27.8107 18.902 27.9889 18.9465C28.4343 19.0356 28.8797 19.0802 29.3697 19.0802C29.5479 19.0802 29.7261 19.0802 29.8597 19.1693C30.1269 19.3029 30.216 19.6592 30.216 19.971C30.2606 20.6837 30.1715 21.441 29.9488 22.1091C30.1715 22.3764 30.5724 22.2873 30.8842 22.1091C31.196 21.931 31.4632 21.7082 31.8196 21.6637C32.4877 21.6192 32.9332 22.5546 33.6013 22.5546C34.0468 22.5546 34.4031 22.1982 34.5813 21.7973C34.7595 21.3964 34.8485 20.951 35.0713 20.5947" stroke="#616161" stroke-width="1.4" stroke-miterlimit="10" stroke-linecap="round" stroke-linejoin="round"/>
</svg>
