<svg width="45" height="45" viewBox="0 0 45 45" fill="none" xmlns="http://www.w3.org/2000/svg">
<path d="M37.2562 28.3093C34.9529 28.3093 32.9132 29.454 31.6719 31.2031L30.2495 30.3817C30.7889 29.2677 31.0916 28.0186 31.0916 26.7C31.0916 25.194 30.6914 23.7148 29.9342 22.4219C29.7585 22.1219 29.3729 22.0212 29.073 22.1968C28.773 22.3725 28.6722 22.7582 28.8479 23.0581C29.4921 24.1581 29.8326 25.4175 29.8326 26.7C29.8326 30.6798 26.5947 33.9178 22.6149 33.9178C18.6351 33.9178 15.3972 30.6798 15.3972 26.7C15.3972 22.7202 18.6351 19.4823 22.6149 19.4823C24.2465 19.4823 25.7858 20.0133 27.0663 21.018C27.3397 21.2326 27.7353 21.1849 27.95 20.9113C28.1646 20.6378 28.1169 20.2422 27.8434 20.0276C26.5072 18.9792 24.931 18.371 23.2526 18.2479L23.2541 16.6868C26.7376 16.371 29.4766 13.4355 29.4766 9.87109C29.4766 6.09656 26.4058 3.02575 22.6312 3.02575C21.1692 3.02575 19.7742 3.4803 18.597 4.3403C18.3163 4.54533 18.255 4.9392 18.4601 5.21986C18.6651 5.50051 19.0589 5.56177 19.3396 5.35682C20.2998 4.65536 21.438 4.28466 22.6312 4.28466C25.7116 4.28466 28.2177 6.79072 28.2177 9.87109C28.2177 12.9515 25.7116 15.4575 22.6312 15.4575C19.5509 15.4575 17.0448 12.9515 17.0448 9.87109C17.0448 8.99363 17.2423 8.15403 17.6317 7.37552C17.7872 7.06457 17.6613 6.68648 17.3504 6.53096C17.0394 6.37536 16.6614 6.50134 16.5058 6.81229C16.0281 7.76721 15.7859 8.79632 15.7859 9.87109C15.7859 13.431 18.5178 16.3638 21.9952 16.6858L21.9937 18.2463C17.6086 18.5655 14.1383 22.235 14.1383 26.7001C14.1383 28.0189 14.4411 29.2682 14.9807 30.3824L13.5602 31.2029C12.3188 29.454 10.2793 28.3095 7.97617 28.3095C4.20172 28.3093 1.13092 31.3801 1.13092 35.1547C1.13092 38.9292 4.20172 42 7.97626 42C9.0658 42 10.1077 41.7514 11.0729 41.261C11.3829 41.1036 11.5065 40.7246 11.349 40.4148C11.1916 40.1048 10.8127 39.9813 10.5028 40.1387C9.71598 40.5384 8.86588 40.7411 7.97634 40.7411C4.89588 40.7411 2.38982 38.235 2.38982 35.1547C2.38982 32.0743 4.89588 29.5682 7.97626 29.5682C11.0566 29.5682 13.5627 32.0743 13.5627 35.1547C13.5627 36.3355 13.1989 37.4641 12.5108 38.4183C12.3075 38.7002 12.3712 39.0936 12.6532 39.297C12.9351 39.5003 13.3285 39.4365 13.5319 39.1546C14.3756 37.9847 14.8216 36.6016 14.8216 35.1547C14.8216 34.1329 14.5949 33.1635 14.1918 32.2918L15.6124 31.4713C17.1403 33.7066 19.7091 35.1767 22.615 35.1767C25.5211 35.1767 28.09 33.7063 29.6178 31.4708L31.0404 32.2923C30.6374 33.1638 30.4109 34.133 30.4109 35.1547C30.4109 38.9292 33.4817 42 37.2562 42C37.5701 42 37.8859 41.9785 38.1949 41.936C38.5393 41.8888 38.7802 41.5713 38.733 41.2269C38.6857 40.8824 38.3682 40.6415 38.0238 40.6888C37.7713 40.7235 37.513 40.741 37.2562 40.741C34.1758 40.741 31.6698 38.235 31.6698 35.1546C31.6698 32.0742 34.1758 29.5682 37.2562 29.5682C40.3366 29.5682 42.8426 32.0742 42.8426 35.1546C42.8426 36.9661 41.9581 38.6728 40.4766 39.72C40.1927 39.9207 40.1252 40.3135 40.3259 40.5974C40.5266 40.8813 40.9194 40.9488 41.2033 40.7481C43.018 39.4654 44.1015 37.3744 44.1015 35.1547C44.1015 31.3801 41.0307 28.3093 37.2562 28.3093V28.3093Z" fill="#616161"/>
<path d="M25.7344 24.9224L23.1929 24.922L23.1925 21.4966C23.1924 21.1571 22.9608 20.8693 22.6293 20.7967C22.2981 20.724 21.9675 20.8887 21.8255 21.1971L18.7922 27.7845C18.6893 28.0077 18.707 28.2644 18.8394 28.4713C18.9718 28.6781 19.1973 28.8015 19.4427 28.8015L21.934 28.8014L21.9341 32.2202C21.9341 32.5586 22.1648 32.8463 22.4949 32.9198C22.7511 32.9716 23.08 32.8892 23.2992 32.5245L26.383 25.9437C26.3829 25.9437 26.383 25.9436 26.383 25.9437C26.4875 25.7203 26.471 25.4627 26.3387 25.2546C26.2065 25.0465 25.9805 24.9224 25.7344 24.9224ZM23.193 29.7842V28.6084C23.193 28.0206 22.7156 27.5423 22.1288 27.5423H20.2896L21.934 23.9712L21.9341 25.1148C21.9341 25.7024 22.4114 26.1807 22.998 26.1807L24.8813 26.1811L23.193 29.7842Z" fill="#616161"/>
<path d="M40.3162 37.3247L39.6075 36.616C39.7653 36.363 39.883 36.0829 39.9527 35.7843H40.9543C41.3019 35.7843 41.5837 35.5024 41.5837 35.1548C41.5837 34.8072 41.3019 34.5254 40.9543 34.5254H39.9527C39.8831 34.2268 39.7653 33.9467 39.6075 33.6936L40.3162 32.985C40.562 32.7391 40.562 32.3406 40.3162 32.0948C40.0703 31.849 39.6718 31.849 39.426 32.0948L38.7173 32.8035C38.4644 32.6457 38.1842 32.528 37.8856 32.4582V31.4567C37.8856 31.1091 37.6038 30.8273 37.2562 30.8273C36.9086 30.8273 36.6267 31.1091 36.6267 31.4567V32.4582C36.3282 32.5279 36.048 32.6457 35.795 32.8035L35.0863 32.0948C34.8405 31.849 34.4419 31.849 34.1962 32.0948C33.9504 32.3407 33.9504 32.7392 34.1962 32.985L34.9049 33.6936C34.7471 33.9466 34.6293 34.2267 34.5596 34.5254H33.5581C33.2105 34.5254 32.9286 34.8072 32.9286 35.1548C32.9286 35.5024 33.2105 35.7843 33.5581 35.7843H34.5596C34.6293 36.0828 34.7471 36.3629 34.9049 36.616L34.1962 37.3247C33.9504 37.5705 33.9504 37.9691 34.1962 38.2148C34.3191 38.3377 34.4802 38.3992 34.6413 38.3992C34.8023 38.3992 34.9635 38.3377 35.0863 38.2148L35.795 37.5061C36.048 37.6639 36.3281 37.7816 36.6267 37.8514V38.8529C36.6267 39.2005 36.9086 39.4823 37.2562 39.4823C37.6038 39.4823 37.8856 39.2005 37.8856 38.8529V37.8514C38.1842 37.7817 38.4643 37.6639 38.7173 37.5061L39.426 38.2148C39.5489 38.3377 39.71 38.3992 39.8711 38.3992C40.0321 38.3992 40.1933 38.3377 40.3162 38.2148C40.5621 37.9691 40.5621 37.5705 40.3162 37.3247ZM37.2562 36.6655C36.4232 36.6655 35.7455 35.9878 35.7455 35.1548C35.7455 34.3218 36.4232 33.6441 37.2562 33.6441C38.0892 33.6441 38.7669 34.3218 38.7669 35.1548C38.7669 35.9878 38.0892 36.6655 37.2562 36.6655Z" fill="#616161"/>
<path d="M25.7452 10.6648C25.7452 9.353 24.1623 7.32465 23.2186 6.23226C23.0711 6.06147 22.857 5.96352 22.6313 5.96352C22.4056 5.96352 22.1915 6.06147 22.0439 6.23234C21.1003 7.32482 19.5173 9.35325 19.5173 10.6648C19.5173 12.3818 20.9143 13.7788 22.6314 13.7788C24.3483 13.7787 25.7452 12.3818 25.7452 10.6648V10.6648ZM20.7762 10.6648C20.7762 10.1118 21.5223 8.84583 22.6314 7.48974C23.7403 8.84558 24.4864 10.1116 24.4864 10.6648C24.4864 11.6877 23.6542 12.5199 22.6314 12.5199C21.6084 12.5198 20.7762 11.6877 20.7762 10.6648V10.6648Z" fill="#616161"/>
<path d="M5.03075 38.1003C5.22622 38.2823 5.59382 38.3882 5.92088 38.1039L6.59171 37.4382C6.96359 37.6493 7.37013 37.7563 7.78524 37.7563C8.36047 37.7563 8.95174 37.552 9.48862 37.1387C11.5656 35.5401 11.152 33.4455 10.8778 32.6193C10.7885 32.3499 10.5727 32.1405 10.3008 32.0592C10.028 31.9776 9.732 32.0345 9.50868 32.2114C9.28409 32.3891 8.83726 32.6941 8.36802 32.7397C7.48494 32.8141 6.71592 32.8692 5.97736 33.6313C5.3067 34.3026 5.09051 35.6147 5.67699 36.5725L5.03428 37.2102C4.78753 37.455 4.78594 37.8536 5.03075 38.1003V38.1003ZM6.868 34.521C7.22091 34.1198 7.69224 34.0494 8.48955 33.9926C8.99034 33.944 9.44304 33.7502 9.80972 33.531C9.92881 34.2723 9.81937 35.2955 8.72085 36.1411C8.06589 36.6452 7.36812 36.6124 6.85407 36.0536C6.43217 35.5949 6.56955 34.8198 6.868 34.521Z" fill="#616161"/>
</svg>
